<?xml version="1.0" encoding="utf-8"?>
<!-- Generator: Adobe Illustrator 21.1.0, SVG Export Plug-In . SVG Version: 6.00 Build 0)  -->
<svg version="1.1" id="Layer_1" xmlns="http://www.w3.org/2000/svg" xmlns:xlink="http://www.w3.org/1999/xlink" x="0px" y="0px"
	 viewBox="0 0 100 100" style="enable-background:new 0 0 100 100;" xml:space="preserve">
<style type="text/css">
	.st0{fill:#B7B4A4;}
</style>
<g>
	<path class="st0" d="M63.3,68.6c-9,6.4-21.5,5.6-29.6-2.4c-4.5-4.5-6.7-10.3-6.7-16.2H36L24.5,32.5L13,50h8.2
		c0,7.4,2.8,14.7,8.4,20.3C40,80.7,56.2,81.5,67.5,72.8L63.3,68.6z"/>
	<path class="st0" d="M36.7,31.4c9-6.4,21.5-5.6,29.6,2.4c4.5,4.5,6.7,10.3,6.7,16.2H64l11.5,17.5L87,50h-8.2
		c0-7.4-2.8-14.7-8.4-20.3C60,19.3,43.8,18.5,32.5,27.2L36.7,31.4z"/>
</g>
</svg>
